<svg xmlns="http://www.w3.org/2000/svg" width="300" height="160" viewBox="0 0 300 160">
  <defs>
    <linearGradient id="fg" x1="0" y1="0" x2="1" y2="1">
      <stop offset="0%" stop-color="#6699FF"/>
      <stop offset="100%" stop-color="#FF3366"/>
    </linearGradient>
  </defs>
  <rect width="300" height="160" fill="#000"/>
  <!-- Title -->
  <rect x="80" y="12" width="140" height="12" rx="3" fill="#fff"/>
  <!-- FAQ items -->
  <g transform="translate(60, 38)">
    <rect x="0" y="0" width="180" height="20" rx="3" fill="none"/>
    <rect x="0" y="4" width="140" height="6" rx="2" fill="#fff" opacity="0.8"/>
    <text x="170" y="10" fill="#fff" font-size="12" opacity="0.5">+</text>
    <line x1="0" y1="20" x2="180" y2="20" stroke="#ffffff" stroke-opacity="0.08" stroke-width="1"/>
  </g>
  <g transform="translate(60, 62)">
    <rect x="0" y="4" width="130" height="6" rx="2" fill="#fff" opacity="0.8"/>
    <text x="170" y="10" fill="#fff" font-size="12" opacity="0.5">+</text>
    <line x1="0" y1="20" x2="180" y2="20" stroke="#ffffff" stroke-opacity="0.08" stroke-width="1"/>
  </g>
  <g transform="translate(60, 86)">
    <rect x="0" y="4" width="150" height="6" rx="2" fill="#fff" opacity="0.8"/>
    <text x="170" y="10" fill="#fff" font-size="12" opacity="0.5">+</text>
    <line x1="0" y1="20" x2="180" y2="20" stroke="#ffffff" stroke-opacity="0.08" stroke-width="1"/>
  </g>
  <g transform="translate(60, 110)">
    <rect x="0" y="4" width="120" height="6" rx="2" fill="#fff" opacity="0.8"/>
    <text x="170" y="10" fill="#fff" font-size="12" opacity="0.5">+</text>
    <line x1="0" y1="20" x2="180" y2="20" stroke="#ffffff" stroke-opacity="0.08" stroke-width="1"/>
  </g>
  <g transform="translate(60, 134)">
    <rect x="0" y="4" width="145" height="6" rx="2" fill="#fff" opacity="0.8"/>
    <text x="170" y="10" fill="#fff" font-size="12" opacity="0.5">+</text>
  </g>
</svg>
