<svg xmlns="http://www.w3.org/2000/svg" width="300" height="100" viewBox="0 0 300 100">
  <rect width="300" height="100" fill="#050505"/>
  <line x1="0" y1="0" x2="300" y2="0" stroke="#ffffff" stroke-opacity="0.05" stroke-width="1"/>
  <line x1="0" y1="99" x2="300" y2="99" stroke="#ffffff" stroke-opacity="0.05" stroke-width="1"/>
  <!-- Label -->
  <rect x="100" y="20" width="100" height="8" rx="2" fill="#888"/>
  <!-- Logo placeholders -->
  <rect x="20" y="50" width="40" height="10" rx="3" fill="#888" opacity="0.5"/>
  <rect x="70" y="50" width="35" height="10" rx="3" fill="#888" opacity="0.5"/>
  <rect x="115" y="50" width="45" height="10" rx="3" fill="#888" opacity="0.5"/>
  <rect x="170" y="50" width="38" height="10" rx="3" fill="#888" opacity="0.5"/>
  <rect x="218" y="50" width="35" height="10" rx="3" fill="#888" opacity="0.5"/>
  <rect x="263" y="50" width="25" height="10" rx="3" fill="#888" opacity="0.5"/>
  <rect x="50" y="70" width="42" height="10" rx="3" fill="#888" opacity="0.5"/>
  <rect x="102" y="70" width="50" height="10" rx="3" fill="#888" opacity="0.5"/>
  <rect x="162" y="70" width="36" height="10" rx="3" fill="#888" opacity="0.5"/>
  <rect x="208" y="70" width="44" height="10" rx="3" fill="#888" opacity="0.5"/>
</svg>
