<svg xmlns="http://www.w3.org/2000/svg" width="300" height="140" viewBox="0 0 300 140">
  <defs>
    <linearGradient id="prg" x1="0" y1="0" x2="1" y2="1">
      <stop offset="0%" stop-color="#6699FF"/>
      <stop offset="100%" stop-color="#FF3366"/>
    </linearGradient>
  </defs>
  <rect width="300" height="140" fill="#020202"/>
  <!-- Title -->
  <rect x="100" y="12" width="100" height="12" rx="3" fill="#fff"/>
  <!-- 4 steps -->
  <circle cx="45" cy="60" r="14" fill="url(#prg)"/>
  <text x="42" y="64" fill="#fff" font-size="10" font-weight="bold">1</text>
  <circle cx="120" cy="60" r="14" fill="url(#prg)"/>
  <text x="117" y="64" fill="#fff" font-size="10" font-weight="bold">2</text>
  <circle cx="195" cy="60" r="14" fill="url(#prg)"/>
  <text x="192" y="64" fill="#fff" font-size="10" font-weight="bold">3</text>
  <circle cx="265" cy="60" r="14" fill="url(#prg)"/>
  <text x="262" y="64" fill="#fff" font-size="10" font-weight="bold">4</text>
  <!-- Step labels -->
  <rect x="20" y="86" width="50" height="6" rx="2" fill="#fff" opacity="0.7"/>
  <rect x="22" y="98" width="46" height="4" rx="1" fill="#888"/>
  <rect x="95" y="86" width="50" height="6" rx="2" fill="#fff" opacity="0.7"/>
  <rect x="97" y="98" width="46" height="4" rx="1" fill="#888"/>
  <rect x="170" y="86" width="50" height="6" rx="2" fill="#fff" opacity="0.7"/>
  <rect x="172" y="98" width="46" height="4" rx="1" fill="#888"/>
  <rect x="240" y="86" width="50" height="6" rx="2" fill="#fff" opacity="0.7"/>
  <rect x="242" y="98" width="46" height="4" rx="1" fill="#888"/>
</svg>
