<svg xmlns="http://www.w3.org/2000/svg" width="300" height="180" viewBox="0 0 300 180">
  <defs>
    <linearGradient id="ag" x1="0" y1="0" x2="1" y2="1">
      <stop offset="0%" stop-color="#6699FF"/>
      <stop offset="100%" stop-color="#FF3366"/>
    </linearGradient>
  </defs>
  <rect width="300" height="180" fill="#000"/>
  <!-- Title -->
  <rect x="60" y="12" width="180" height="12" rx="3" fill="#fff"/>
  <rect x="100" y="28" width="100" height="8" rx="2" fill="#888"/>
  <!-- Two columns -->
  <rect x="10" y="48" width="135" height="122" rx="10" fill="#111" stroke="#ffffff" stroke-opacity="0.06" stroke-width="1" opacity="0.6"/>
  <rect x="155" y="48" width="135" height="122" rx="10" fill="#111" stroke="#933df5" stroke-width="1.5"/>
  <!-- Left column content -->
  <rect x="24" y="60" width="60" height="8" rx="2" fill="#888"/>
  <rect x="24" y="76" width="90" height="14" rx="3" fill="#555"/>
  <rect x="24" y="100" width="100" height="4" rx="1" fill="#888" opacity="0.5"/>
  <rect x="24" y="110" width="90" height="4" rx="1" fill="#888" opacity="0.5"/>
  <rect x="24" y="120" width="95" height="4" rx="1" fill="#888" opacity="0.5"/>
  <!-- Right column content -->
  <rect x="169" y="60" width="80" height="8" rx="2" fill="url(#ag)"/>
  <rect x="169" y="76" width="100" height="14" rx="3" fill="url(#ag)"/>
  <rect x="169" y="100" width="100" height="4" rx="1" fill="#44ff88" opacity="0.5"/>
  <rect x="169" y="110" width="90" height="4" rx="1" fill="#44ff88" opacity="0.5"/>
  <rect x="169" y="120" width="95" height="4" rx="1" fill="#44ff88" opacity="0.5"/>
</svg>
