<svg xmlns="http://www.w3.org/2000/svg" width="300" height="160" viewBox="0 0 300 160">
  <defs>
    <linearGradient id="tg" x1="0" y1="0" x2="1" y2="1">
      <stop offset="0%" stop-color="#6699FF"/>
      <stop offset="100%" stop-color="#FF3366"/>
    </linearGradient>
  </defs>
  <rect width="300" height="160" fill="#000"/>
  <!-- Title -->
  <rect x="90" y="10" width="120" height="12" rx="3" fill="#fff"/>
  <!-- 3 testimonial cards -->
  <rect x="10" y="34" width="86" height="116" rx="8" fill="#111" stroke="#ffffff" stroke-opacity="0.06" stroke-width="1"/>
  <rect x="107" y="34" width="86" height="116" rx="8" fill="#111" stroke="#ffffff" stroke-opacity="0.06" stroke-width="1"/>
  <rect x="204" y="34" width="86" height="116" rx="8" fill="#111" stroke="#ffffff" stroke-opacity="0.06" stroke-width="1"/>
  <!-- Stars -->
  <text x="22" y="54" fill="#ffd700" font-size="8">★★★★★</text>
  <text x="119" y="54" fill="#ffd700" font-size="8">★★★★★</text>
  <text x="216" y="54" fill="#ffd700" font-size="8">★★★★★</text>
  <!-- Text lines -->
  <rect x="20" y="62" width="66" height="4" rx="1" fill="#ccc" opacity="0.5"/>
  <rect x="20" y="70" width="60" height="4" rx="1" fill="#ccc" opacity="0.5"/>
  <rect x="20" y="78" width="56" height="4" rx="1" fill="#ccc" opacity="0.5"/>
  <rect x="117" y="62" width="66" height="4" rx="1" fill="#ccc" opacity="0.5"/>
  <rect x="117" y="70" width="60" height="4" rx="1" fill="#ccc" opacity="0.5"/>
  <rect x="117" y="78" width="56" height="4" rx="1" fill="#ccc" opacity="0.5"/>
  <rect x="214" y="62" width="66" height="4" rx="1" fill="#ccc" opacity="0.5"/>
  <rect x="214" y="70" width="60" height="4" rx="1" fill="#ccc" opacity="0.5"/>
  <rect x="214" y="78" width="56" height="4" rx="1" fill="#ccc" opacity="0.5"/>
  <!-- Author avatars -->
  <circle cx="32" cy="122" r="10" fill="url(#tg)"/>
  <rect x="48" y="118" width="40" height="5" rx="1" fill="#fff" opacity="0.7"/>
  <rect x="48" y="126" width="30" height="4" rx="1" fill="#888"/>
  <circle cx="129" cy="122" r="10" fill="url(#tg)"/>
  <rect x="145" y="118" width="40" height="5" rx="1" fill="#fff" opacity="0.7"/>
  <rect x="145" y="126" width="30" height="4" rx="1" fill="#888"/>
  <circle cx="226" cy="122" r="10" fill="url(#tg)"/>
  <rect x="242" y="118" width="40" height="5" rx="1" fill="#fff" opacity="0.7"/>
  <rect x="242" y="126" width="30" height="4" rx="1" fill="#888"/>
</svg>
